<svg width="240" height="90" xmlns="http://www.w3.org/2000/svg" baseProfile="full" version="1.1" stroke="#fff" stroke-width="1" fill="black">
  <rect x="0"   y="0" width="30" height="90" rx="3"></rect>
  <rect x="30"  y="0" width="30" height="90" rx="3"></rect>
  <rect x="60"  y="0" width="30" height="90" rx="3"></rect>
  <rect x="90"  y="0" width="30" height="90" rx="3"></rect>
  <rect x="120" y="0" width="30" height="90" rx="3"></rect>
  <rect x="150" y="0" width="30" height="90" rx="3"></rect>
  <rect x="180" y="0" width="30" height="90" rx="3"></rect>

  <rect x="16"  y="-30" width="28" height="90" rx="3"></rect>
  <rect x="46"  y="-30" width="28" height="90" rx="3"></rect>
  <rect x="106" y="-30" width="28" height="90" rx="3"></rect>
  <rect x="136" y="-30" width="28" height="90" rx="3"></rect>
  <rect x="166" y="-30" width="28" height="90" rx="3"></rect>
</svg>